<svg width="770" height="800" viewBox="0 0 770 800" fill="none" xmlns="http://www.w3.org/2000/svg">
<path d="M761.025 657.081C753.203 638.581 740.202 622.923 723.795 611.844C707.417 600.764 687.461 594.245 666.258 594.259C652.134 594.259 638.542 597.158 626.22 602.345C623.261 603.608 620.383 605.05 617.567 606.548L584.256 514.131L612.906 468.2C612.906 368.723 648.416 83.9578 564.431 0C480.459 83.9578 490.534 368.738 490.534 468.172L522.75 519.873L486.444 606.827C471.798 598.823 454.942 594.248 437.177 594.261C423.045 594.248 409.441 597.147 397.133 602.361C378.619 610.169 362.975 623.177 351.895 639.583C340.794 655.975 334.297 675.93 334.317 697.12C334.303 711.252 337.194 724.856 342.416 737.186C350.238 755.686 363.231 771.314 379.637 782.411C396.022 793.505 415.958 800.008 437.183 799.995C451.308 799.995 464.906 797.138 477.22 791.895C495.713 784.075 511.377 771.053 522.45 754.661C533.537 738.269 540.056 718.341 540.028 697.122C540.05 682.991 537.166 669.386 531.944 657.084C528.85 649.763 524.912 642.925 520.302 636.602L551.712 586.233L583.15 636.63C582.416 637.616 581.673 638.598 580.966 639.584C569.891 655.977 563.381 675.931 563.402 697.122C563.387 711.253 566.266 724.858 571.486 737.188C579.33 755.688 592.337 771.331 608.73 782.412C625.094 793.506 645.05 800.009 666.263 799.997C680.38 799.997 693.991 797.125 706.312 791.897C724.805 784.062 740.456 771.055 751.542 754.662C762.623 738.27 769.142 718.342 769.127 697.123C769.123 682.987 766.247 669.383 761.025 657.081ZM481.319 715.758C477.7 724.316 471.598 731.692 463.936 736.852C456.253 742.023 447.197 745.02 437.184 745.02C430.486 745.02 424.259 743.673 418.539 741.275C409.983 737.669 402.605 731.539 397.433 723.87C392.267 716.214 389.292 707.145 389.286 697.119C389.272 690.42 390.617 684.206 393.023 678.48C396.636 669.936 402.758 662.573 410.406 657.388C418.097 652.214 427.152 649.231 437.184 649.219C443.875 649.231 450.095 650.564 455.816 652.977C464.373 656.597 471.736 662.698 476.903 670.353C482.077 678.05 485.056 687.106 485.064 697.119C485.072 703.803 483.739 710.044 481.319 715.758ZM710.406 715.758C706.8 724.316 700.67 731.692 693.023 736.852C685.347 742.023 676.278 744.992 666.264 745.02C659.566 745.02 653.352 743.673 647.633 741.275C639.069 737.655 631.698 731.539 626.525 723.87C621.367 716.214 618.378 707.131 618.364 697.119C618.378 690.42 619.703 684.206 622.116 678.48C625.736 669.936 631.844 662.573 639.498 657.388C647.173 652.214 656.245 649.231 666.264 649.219C672.948 649.231 679.175 650.564 684.895 652.977C693.452 656.597 700.836 662.698 705.995 670.353C711.155 678.037 714.15 687.106 714.17 697.119C714.158 703.803 712.827 710.044 710.406 715.758Z" fill="black"/>
<path d="M148.452 339.502L263.598 339.53C276.961 339.53 287.784 328.686 287.798 315.344C287.784 302.003 276.953 291.158 263.62 291.158L148.452 291.186C143.895 291.158 140.194 287.469 140.173 282.892L140.195 259.566C140.195 254.988 143.897 251.3 148.473 251.3L263.598 251.327C276.961 251.327 287.784 240.481 287.764 227.141C287.784 213.744 276.961 202.981 263.598 202.981H148.445C143.897 202.955 140.188 199.238 140.166 194.688L140.188 171.389C140.188 166.786 143.897 163.069 148.445 163.095L263.614 163.069C276.975 163.069 287.766 152.278 287.766 138.881C287.786 125.569 276.962 114.725 263.6 114.725H148.453C143.897 114.752 140.181 111.036 140.188 106.459V83.1641C140.188 78.5875 143.897 74.8985 148.459 74.8985L256.352 74.8704C273.716 74.8704 287.784 60.7797 287.784 43.4735C287.784 26.1094 273.702 12.0204 256.359 12.0204L78.8266 7.16879C58.0937 6.66879 38.0406 14.5469 23.2141 28.9969C8.36875 43.5016 0.0203118 63.3329 0.0203118 84.0797L0 723.038C0 743.756 8.35625 763.616 23.2094 778.094C38.0406 792.598 58.0938 800.448 78.8203 799.978L256.358 795.069C273.708 795.069 287.783 781.034 287.764 763.67C287.764 746.308 273.702 732.217 256.352 732.217H148.459C143.897 732.217 140.18 728.528 140.188 723.953L140.166 700.653C140.166 696.078 143.869 692.361 148.452 692.361H263.598C276.961 692.361 287.784 681.516 287.798 668.203C287.784 654.861 276.967 644.017 263.598 644.017H148.445C143.869 644.017 140.166 640.298 140.18 635.752L140.166 612.453C140.18 607.877 143.903 604.133 148.452 604.159H263.598C276.961 604.159 287.784 593.314 287.764 580.002C287.784 566.661 276.961 555.789 263.598 555.789H148.445C143.889 555.789 140.166 552.1 140.166 547.522L140.188 524.225C140.188 519.647 143.897 515.959 148.445 515.959H263.614C276.961 515.959 287.786 505.142 287.786 491.773C287.766 478.403 276.962 467.614 263.614 467.586H148.453C143.897 467.586 140.188 463.869 140.188 459.32V435.994C140.188 431.419 143.897 427.73 148.473 427.73H263.592C276.967 427.702 287.77 416.913 287.792 403.544C287.792 390.202 276.961 379.384 263.6 379.384H148.461C143.919 379.384 140.202 375.669 140.195 371.091V347.764C140.172 343.219 143.895 339.502 148.452 339.502Z" fill="black"/>
</svg>
